<?xml version="1.0" encoding="UTF-8"?>
<svg id="Layer_1" xmlns="http://www.w3.org/2000/svg" viewBox="0 0 28 28">
    <defs>
        <style>.home-book-cls-1{fill:#128dc3;}</style>
    </defs>
    <path class="home-book-cls-1 core-icon-class"
        d="m8.48,15.19h1.49c.25,0,.45-.19.45-.44v-1.5c-.01-.24-.2-.44-.45-.44h-1.49c-.24,0-.44.19-.44.44v1.5c0,.24.19.44.44.44Z" />
    <path class="home-book-cls-1 core-icon-class"
        d="m8.48,19.96h1.49c.25,0,.45-.19.45-.44v-1.5c-.01-.24-.2-.44-.45-.44h-1.49c-.24,0-.44.19-.44.44v1.5c0,.24.19.44.44.44Z" />
    <path class="home-book-cls-1 core-icon-class"
        d="m12.82,19.52c.01.24.2.44.45.44h1.5c.24,0,.44-.19.44-.44v-1.49c0-.25-.2-.45-.45-.45h-1.5c-.25,0-.45.19-.45.44h.01v1.5Z" />
    <path class="home-book-cls-1 core-icon-class"
        d="m18.02,19.96h1.49c.24,0,.44-.19.44-.44v-1.5c0-.24-.19-.44-.44-.44h-1.49c-.24,0-.44.19-.44.44v1.5c0,.24.19.44.44.44Z" />
    <path class="home-book-cls-1 core-icon-class"
        d="m13.26,15.19h1.5c.24,0,.44-.19.44-.44v-1.5c0-.24-.19-.44-.44-.44h-1.5c-.25,0-.45.19-.45.44v1.5c.01.24.2.44.45.44Z" />
    <path class="home-book-cls-1 core-icon-class"
        d="m18.02,15.19h1.49c.24,0,.44-.19.44-.44v-1.5c0-.24-.19-.44-.44-.44h-1.49c-.24,0-.44.19-.44.44v1.5c0,.24.19.44.44.44Z" />
    <path class="home-book-cls-1 core-icon-class"
        d="m24,0H4C1.79,0,0,1.79,0,4v20C0,26.21,1.79,28,4,28h20c2.21,0,4-1.79,4-4V4C28,1.79,26.21,0,24,0Zm-1.67,20.56c0,.98-.8,1.79-1.79,1.79H7.43c-.98,0-1.79-.8-1.79-1.79v-10.13h16.69v10.13Zm.02-11.33H5.67v-1.79c0-.98.8-1.79,1.79-1.79h13.11c.98,0,1.79.8,1.79,1.79v1.79Z" />
</svg>